<?xml version="1.0" encoding="UTF-8" standalone="no"?>
<!DOCTYPE svg PUBLIC "-//W3C//DTD SVG 1.1//EN" "http://www.w3.org/Graphics/SVG/1.1/DTD/svg11.dtd">
<svg width="100%" height="100%" viewBox="0 0 750 750" version="1.1" xmlns="http://www.w3.org/2000/svg" xmlns:xlink="http://www.w3.org/1999/xlink" xml:space="preserve" xmlns:serif="http://www.serif.com/" style="fill-rule:evenodd;clip-rule:evenodd;stroke-linejoin:round;stroke-miterlimit:2;">
    <g transform="matrix(0.387994,0,0,0.387994,-133.452,-90.3753)">
        <g transform="matrix(4.16667,0,0,4.16667,468.766,2008.94)">
            <path d="M0,25.714L-0.239,32.277L-25.625,32.277C-25.367,26.272 -25.238,19.499 -25.238,11.962C-25.238,4.723 -25.367,-1.452 -25.625,-6.563L-1.402,-6.563L-1.73,-0.03C-7.697,-0.348 -13.106,-0.508 -17.959,-0.508C-17.76,2.257 -17.661,5.519 -17.661,9.277C-13.504,9.277 -9.059,9.168 -4.326,8.949L-4.326,15.184C-8.979,14.985 -13.424,14.886 -17.661,14.886C-17.661,18.923 -17.581,22.701 -17.422,26.222C-11.973,26.222 -6.166,26.053 0,25.714" style="fill:rgb(32,96,147);fill-rule:nonzero;"/>
        </g>
        <g transform="matrix(4.16667,0,0,4.16667,579.889,2051.82)">
            <path d="M0,5.13C-3.401,-5.132 -5.101,-10.681 -5.101,-11.516L-5.579,-11.516C-5.579,-10.74 -7.338,-5.191 -10.859,5.13L0,5.13ZM13.782,21.985L4.236,21.985C4.236,20.673 3.331,16.954 1.521,10.828L-12.261,10.828C-14.13,16.855 -15.065,20.573 -15.065,21.985L-24.044,21.985C-24.044,21.21 -21.723,14.846 -17.079,2.893C-12.435,-9.059 -10.113,-15.642 -10.113,-16.855L1.164,-16.855C1.164,-15.722 3.267,-9.233 7.473,2.609C11.679,14.453 13.782,20.911 13.782,21.985" style="fill:rgb(32,96,147);fill-rule:nonzero;"/>
        </g>
        <g transform="matrix(4.16667,0,0,4.16667,784.609,1986.94)">
            <path d="M0,36.543C-4.733,37.756 -8.691,38.363 -11.873,38.363C-18.715,38.363 -23.9,36.489 -27.43,32.74C-30.96,28.991 -32.726,24.441 -32.726,19.092C-32.726,13.464 -30.801,8.571 -26.953,4.414C-23.104,0.258 -17.77,-1.82 -10.948,-1.82C-7.746,-1.82 -4.922,-1.532 -2.476,-0.955L-3.46,6.085C-6.583,5.27 -9.387,4.862 -11.873,4.862C-16.069,4.862 -19.202,6.149 -21.27,8.726C-23.338,11.301 -24.373,14.448 -24.373,18.167C-24.373,21.966 -23.214,25.277 -20.897,28.101C-18.581,30.925 -15.383,32.337 -11.306,32.337C-10.172,32.337 -8.86,32.218 -7.368,31.98C-7.667,29.772 -7.816,27.605 -7.816,25.476C-7.816,23.328 -8.024,20.911 -8.442,18.227L0,18.227C-0.159,21.289 -0.238,24.372 -0.238,27.475C-0.238,29.722 -0.159,32.745 0,36.543" style="fill:rgb(32,96,147);fill-rule:nonzero;"/>
        </g>
        <g transform="matrix(4.16667,0,0,4.16667,919.102,2008.69)">
            <path d="M0,25.835L-0.239,32.338L-25.029,32.338C-24.79,26.948 -24.671,20.177 -24.671,12.022C-24.671,4.545 -24.79,-1.63 -25.029,-6.503L-16.646,-6.503C-16.885,-1.988 -17.004,4.187 -17.004,12.022C-17.004,18.009 -17.134,22.762 -17.392,26.282C-11.903,26.282 -6.106,26.133 0,25.835" style="fill:rgb(32,96,147);fill-rule:nonzero;"/>
        </g>
        <g transform="matrix(4.16667,0,0,4.16667,1045.14,2008.94)">
            <path d="M0,25.714L-0.239,32.277L-25.625,32.277C-25.367,26.272 -25.238,19.499 -25.238,11.962C-25.238,4.723 -25.367,-1.452 -25.625,-6.563L-1.402,-6.563L-1.73,-0.03C-7.697,-0.348 -13.106,-0.508 -17.959,-0.508C-17.76,2.257 -17.661,5.519 -17.661,9.277C-13.504,9.277 -9.059,9.168 -4.326,8.949L-4.326,15.184C-8.979,14.985 -13.424,14.886 -17.661,14.886C-17.661,18.923 -17.581,22.701 -17.422,26.222C-11.973,26.222 -6.166,26.053 0,25.714" style="fill:rgb(32,96,147);fill-rule:nonzero;"/>
        </g>
        <g transform="matrix(4.16667,0,0,4.16667,1243.64,2012.17)">
            <path d="M0,24.432L-0.507,31.293C-3.331,31.969 -6.115,32.308 -8.859,32.308C-15.681,32.308 -20.877,30.424 -24.447,26.655C-28.017,22.886 -29.802,18.307 -29.802,12.917C-29.802,7.328 -27.907,2.466 -24.119,-1.671C-20.33,-5.807 -15.135,-7.876 -8.531,-7.876C-6.105,-7.876 -3.809,-7.597 -1.641,-7.041L-2.685,-0.149C-5.031,-0.905 -7.278,-1.283 -9.427,-1.283C-13.464,-1.283 -16.467,-0.005 -18.436,2.55C-20.404,5.106 -21.389,8.214 -21.389,11.873C-21.389,15.612 -20.221,18.854 -17.884,21.598C-15.547,24.343 -12.271,25.715 -8.054,25.715C-5.588,25.715 -2.903,25.287 0,24.432" style="fill:rgb(32,96,147);fill-rule:nonzero;"/>
        </g>
        <g transform="matrix(4.16667,0,0,4.16667,1383.98,2062.64)">
            <path d="M0,0.119C0,-4.037 -1.063,-7.408 -3.191,-9.994C-5.32,-12.579 -7.945,-13.872 -11.067,-13.872C-13.972,-13.872 -16.437,-12.569 -18.466,-9.964C-20.494,-7.359 -21.509,-4.068 -21.509,-0.09C-21.509,4.047 -20.439,7.413 -18.302,10.009C-16.164,12.603 -13.543,13.901 -10.44,13.901C-7.537,13.901 -5.071,12.594 -3.042,9.978C-1.014,7.363 0,4.077 0,0.119M8.234,-0.746C8.234,5.359 6.364,10.422 2.626,14.438C-1.113,18.456 -5.737,20.465 -11.246,20.465C-16.497,20.465 -20.893,18.62 -24.432,14.931C-27.972,11.242 -29.742,6.553 -29.742,0.865C-29.742,-5.24 -27.873,-10.302 -24.134,-14.319C-20.395,-18.337 -15.771,-20.346 -10.262,-20.346C-5.012,-20.346 -0.616,-18.506 2.924,-14.826C6.464,-11.147 8.234,-6.453 8.234,-0.746" style="fill:rgb(32,96,147);fill-rule:nonzero;"/>
        </g>
        <g transform="matrix(4.16667,0,0,4.16667,1580.13,2147.65)">
            <path d="M0,-39.855C-0.179,-33.173 -0.269,-26.491 -0.269,-19.808C-0.269,-6.602 -5.678,0 -16.497,0C-21.847,0 -25.874,-1.461 -28.579,-4.385C-31.284,-7.309 -32.636,-12.559 -32.636,-20.136C-32.636,-26.819 -32.726,-33.391 -32.904,-39.855L-24.462,-39.855C-24.721,-33.133 -24.85,-26.65 -24.85,-20.405C-24.85,-14.935 -24.154,-11.187 -22.762,-9.159C-21.37,-7.129 -19.222,-6.116 -16.318,-6.116C-13.275,-6.116 -11.078,-7.125 -9.725,-9.143C-8.373,-11.162 -7.696,-14.935 -7.696,-20.464C-7.696,-26.53 -7.826,-32.994 -8.084,-39.855L0,-39.855Z" style="fill:rgb(32,96,147);fill-rule:nonzero;"/>
        </g>
        <g transform="matrix(4.16667,0,0,4.16667,1746.57,1981.59)">
            <path d="M0,38.841L-7.369,38.841C-7.369,38.026 -10.104,33.72 -15.572,25.924C-21.3,17.71 -24.562,12.092 -25.357,9.069L-25.835,9.069C-25.338,13.424 -25.089,17.362 -25.089,20.882C-25.089,25.795 -24.95,31.781 -24.671,38.841L-32.01,38.841C-31.712,32.676 -31.562,25.904 -31.562,18.526C-31.562,11.267 -31.712,5.091 -32.01,0L-23.149,0C-23.149,1.054 -20.693,5.261 -15.781,12.618C-10.551,20.435 -7.548,25.735 -6.772,28.519L-6.324,28.519C-6.802,24.084 -7.041,20.107 -7.041,16.586C-7.041,11.197 -7.18,5.668 -7.458,0L0,0C-0.279,4.933 -0.418,11.108 -0.418,18.526C-0.418,26.003 -0.279,32.776 0,38.841" style="fill:rgb(32,96,147);fill-rule:nonzero;"/>
        </g>
        <g transform="matrix(4.16667,0,0,4.16667,1895.6,2143.43)">
            <path d="M0,-38.841L-0.209,-32.428C-4.187,-32.726 -7.936,-32.875 -11.455,-32.875C-11.495,-29.116 -11.515,-24.929 -11.515,-20.316C-11.515,-13.156 -11.406,-6.384 -11.187,0L-19.54,0C-19.281,-6.324 -19.152,-13.097 -19.152,-20.316C-19.152,-24.85 -19.192,-29.036 -19.271,-32.875C-22.075,-32.875 -25.924,-32.715 -30.816,-32.398L-30.578,-38.841L0,-38.841Z" style="fill:rgb(32,96,147);fill-rule:nonzero;"/>
        </g>
        <g transform="matrix(4.16667,0,0,4.16667,2037.43,2143.43)">
            <path d="M0,-38.841C0,-38.026 -1.134,-35.828 -3.4,-32.248C-6.881,-26.778 -8.999,-23.378 -9.755,-22.046C-12.022,-18.008 -13.156,-15.016 -13.156,-13.067C-13.156,-8.691 -13.036,-4.335 -12.798,0L-21.271,0C-21.052,-4.356 -20.942,-8.741 -20.942,-13.156C-20.942,-15.185 -21.986,-18.257 -24.074,-22.374C-25.049,-24.283 -26.998,-27.694 -29.921,-32.607C-32.01,-36.126 -33.054,-38.204 -33.054,-38.841L-23.687,-38.841C-23.687,-38.125 -22.438,-35.108 -19.942,-29.787C-17.447,-24.467 -16.198,-21.031 -16.198,-19.481L-15.722,-19.481C-15.722,-20.912 -14.503,-24.174 -12.067,-29.265C-9.631,-34.357 -8.412,-37.548 -8.412,-38.841L0,-38.841Z" style="fill:rgb(32,96,147);fill-rule:nonzero;"/>
        </g>
        <g transform="matrix(4.16667,0,0,4.16667,1585.22,1376.69)">
            <path d="M0,-59.672C2.439,-58.15 20.986,-47.705 44.012,-33.03C69.228,-16.96 92.483,-0.805 91.446,2.307C89.461,8.264 44.259,115.539 -84.983,115.539C-249.875,115.539 -321.077,-69.833 -248.609,-175.211C-302.788,-7.853 -84.842,82.069 0,-59.672" style="fill:rgb(33,93,57);fill-rule:nonzero;"/>
        </g>
        <g transform="matrix(3.63549,2.03576,2.03576,-3.63549,1645.12,1179.96)">
            <path d="M-12.425,-3.287L43.858,-3.287C43.858,-3.287 9.148,-13.339 -1.844,-14.617C-3.211,-26.113 -21.604,-60.918 -30.251,-71.612C-16.614,-45.439 -12.425,-3.287 -12.425,-3.287" style="fill:white;fill-rule:nonzero;"/>
        </g>
        <g transform="matrix(4.16667,0,0,4.16667,1903.96,1092.19)">
            <path d="M0,-117.981C-18.549,-152.871 -83.769,-201.893 -158.991,-201.893C-398.832,-195.413 -358.616,91.861 -175.988,68.678C-189.451,24.924 -160.573,-20.126 -122.233,-55.666C-111.728,-64.714 -70.127,-78.774 -70.879,-58.989C-66.418,-69.397 -64.034,-84.935 -73.715,-93.996C-84.421,-99.715 -90.537,-101.244 -101.618,-104.342C-135.495,-136.629 -201.963,-119.356 -225.237,-87.508C-166.058,-209.842 -31.356,-170.536 0,-117.981" style="fill:rgb(32,96,147);fill-rule:nonzero;"/>
        </g>
        <g transform="matrix(0.0940422,-4.16561,-4.16561,-0.0940422,1346.69,637.982)">
            <path d="M-7.406,-8.609C-8.381,-8.631 -14.015,-3.881 -14.116,0.628C-14.184,3.606 -9.722,7.555 -7.406,7.607C-4.969,7.662 -2.214,3.579 -2.147,0.601C-2.049,-3.733 -6.552,-8.59 -7.406,-8.609" style="fill:white;fill-rule:nonzero;"/>
        </g>
    </g>
</svg>
